<svg width="132" height="143" viewBox="0 0 132 143" fill="none" xmlns="http://www.w3.org/2000/svg">
<path d="M3 140C5.90497 140 10.7906 139.481 25.1247 135.968C36.2995 133.229 54.4679 127.522 70.4819 121.598C100.836 110.368 115.458 101.205 120.336 96.3739C127.111 89.6646 128.193 83.109 128.926 79.7063C129.544 76.8388 126.271 71.8504 119.448 64.9151C112.711 58.066 92.6287 50.8832 70.6433 42.8896C57.3729 38.7906 49.0101 36.4224 42.4152 34.3257C39.6936 33.5271 38.2411 33.2675 36.7446 33" stroke="#A6ACB1" stroke-width="5" stroke-linecap="round"/>
<path d="M30 33C35.327 30.9 44.0692 27.7579 54.2708 19.6184C65.3773 13.0737 73.7692 7.75263 77.1624 5.12368C79.1108 4.05789 81.5189 3.53684 84 3" stroke="#A6ACB1" stroke-width="5" stroke-linecap="round"/>
<path d="M30 33C30 33.2567 30 33.5133 30 34.4156C30 35.3178 30 36.8578 34.0219 43.4261C38.0437 49.9944 46.0875 61.5444 56 75" stroke="#A6ACB1" stroke-width="5" stroke-linecap="round"/>
</svg>
