<svg width="17" height="12" viewBox="0 0 17 12" fill="none" xmlns="http://www.w3.org/2000/svg">
<path d="M0.432402 2.75463C1.96934 1.53867 4.46431 1.95905 7.88633 4.01054C9.86938 5.19937 10.2341 5.7882 9.6228 6.81401C9.28179 7.38625 8.76795 7.75201 7.16114 8.56627C3.89608 10.2209 2.00917 10.4662 0.629662 9.41555C-0.120853 8.84394 -0.190432 8.19339 0.367411 6.96362C0.704576 6.22035 0.704872 6.04198 0.370153 5.33475C-0.135447 4.26658 0.432402 2.75463 0.432402 2.75463ZM6.88066 0.793754C8.51714 -0.452625 11.7536 -0.17098 11.7536 1.21781C11.7536 2.24259 9.34419 3.2517 7.67505 2.92599C6.13909 2.62627 5.77118 1.63876 6.88066 0.793754ZM6.57479 9.68831C7.06192 9.26138 8.9589 9.16917 10.1022 9.51685C11.0037 9.79101 11.7536 10.4448 11.7536 10.9566C11.7536 11.4631 10.5938 12 9.49973 12C7.12818 12 5.45027 10.6739 6.57479 9.68831ZM11.1605 3.35617C12.4459 2.18011 16.4266 2.35015 16.9169 3.60207C17.2893 4.55311 15.5064 5.58328 13.488 5.58328C11.2674 5.58328 10.0254 4.39479 11.1605 3.35617ZM11.5225 6.96109C12.1258 6.63575 12.5632 6.54579 13.5415 6.54579C16.0515 6.54579 17.6376 7.58026 16.7525 8.64011C16.3559 9.11503 15.1621 9.43331 13.7773 9.43331C12.7301 9.43331 12.3753 9.35075 11.6372 8.93544C10.4554 8.27045 10.414 7.55884 11.5225 6.96109Z" fill="#A6ACB1"/>
</svg>
