<svg width="134" height="134" viewBox="0 0 134 134" fill="none" xmlns="http://www.w3.org/2000/svg">
<path d="M48.6724 128.338C33.8185 124.083 20.6942 114.438 12.1261 101.48C-5.05897 75.4918 -0.971262 40.9798 21.833 19.5253C29.1754 12.6175 38.3648 7.26813 47.6781 4.48015C55.2928 2.20067 57.5837 1.72995 67.3502 1.67354C69.1478 1.66316 69.7126 5.40749 67.5761 5.52935C59.0683 6.0146 52.1823 7.11923 44.18 10.2862C27.0251 17.0754 14.1912 30.6821 8.33849 48.286C3.59852 62.543 4.95735 79.2879 11.987 93.2469C19.2283 107.626 34.6973 120.426 49.356 124.168C51.3881 124.687 52.4505 125.175 53.0469 125.865C54.022 126.992 54.161 128.839 53.2956 129.171C52.5272 129.466 52.7462 129.505 48.6724 128.338Z" fill="url(#paint0_linear_580_18132)"/>
<path d="M66.7984 40.4479C66.5297 40.4479 66.0587 39.9973 65.7718 39.4613C64.7839 37.6153 59.9444 33.501 56.8947 31.9144C54.1413 30.4819 45.8171 27.9258 44.9004 28.2313C44.6939 28.3002 45.7172 29.1712 47.1744 30.1669C51.1505 32.8836 53.1213 35.5757 53.9294 39.3936C54.1591 40.4786 54.5788 41.8205 54.8621 42.3755C55.557 43.7368 58.1077 45.1677 62.033 46.3984C67.7848 48.2017 68.3697 48.7753 67.868 52.1213C67.5831 54.0211 65.5874 57.5137 63.6318 59.535C62.8769 60.3152 61.0867 61.5342 59.6537 62.2438C57.3365 63.3913 56.5331 63.577 52.3953 63.9215C46.8825 64.3805 45.4395 64.9412 44.4254 67.0186C42.939 70.0634 43.9017 76.3808 46.4721 80.4497C48.0521 82.9509 52.7638 88.7296 54.411 90.1866C55.542 91.1869 55.707 91.529 55.5169 92.4796C55.2014 94.057 55.9214 95.933 57.3878 97.3543C58.4996 98.4319 58.9579 98.6001 61.3715 98.8164L64.0989 99.0608L64.7819 100.903C65.6151 103.15 66.0862 107.436 65.5001 107.436C65.2785 107.436 64.5447 106.667 63.8695 105.726C63.1943 104.786 61.6616 103.28 60.4636 102.379C58.2831 100.74 57.958 100.616 47.9287 97.6053C45.9358 97.007 43.4203 95.8413 41.1323 94.4558C39.1344 93.2461 36.9239 92.1483 36.2199 92.0162C29.1433 90.6886 34.6618 101.2 25.8141 91.1162C16.9375 80.9998 12.5547 72.1859 11.1032 61.5325C10.6078 57.8965 10.5886 53.2082 11.0679 52.912C11.2667 52.7891 11.8073 53.1561 12.2694 53.7275C12.7314 54.2989 14.4009 56.0678 15.9792 57.6584C19.9151 61.625 23.3893 63.3318 27.4983 63.3178C29.9402 63.3095 30.5404 63.17 31.8418 62.3088C36.3237 59.3428 37.5105 54.4812 36.0476 45.079C34.7259 36.5845 34.6137 36.6457 34.6645 45.833C34.716 55.1394 34.5372 56.1987 32.4549 58.9287C30.3626 61.6719 26.6783 62.2056 22.8401 60.3214C18.8913 58.3829 11.775 50.8455 11.2378 48.0326C10.958 46.5675 11.5442 44.3595 13.1849 40.6989C16.7788 32.6801 20.9628 27.8241 26.9769 24.6916C40.7564 17.5145 57.0763 21.4141 65.4019 33.4203L66.8841 35.5577M48.3008 43.9719C48.8106 42.631 48.1771 41.1803 47.0817 41.1803C45.9919 41.1803 45.323 41.8341 45.323 42.8993C45.323 44.3716 45.7306 44.9025 46.861 44.9025C47.6769 44.9025 48.035 44.6711 48.3008 43.9719Z" fill="#4DA4CF"/>
<path d="M66.8515 35.5907L68.5391 33.2258C72.2945 27.963 78.0009 23.8682 84.2286 21.9674C87.1659 21.0709 88.1792 20.9473 92.5957 20.9473C97.0072 20.9473 98.0297 21.0717 100.971 21.9659C110.93 24.9942 118.062 32.1991 121.559 42.766C124.324 51.1207 124.057 61.2926 120.831 70.5242C118.123 78.2725 113.894 84.9662 106.504 93.1984C103.739 96.2797 102.882 96.5542 102.074 94.6191C100.811 91.5976 98.252 91.3696 93.8895 93.8898C88.97 96.7319 87.6752 97.3135 84.0103 98.328C76.0985 100.518 73.0684 102.177 70.1162 105.935C67.7367 108.963 67.6568 108.446 67.6568 106.151C67.6568 103.672 68.2908 100.469 69.0051 99.34C69.4352 98.6603 69.8736 98.5025 71.3325 98.5025C73.3586 98.5025 75.3379 97.4193 76.1138 95.8858C76.3697 95.3801 76.5828 93.7939 76.5874 92.3608L76.5959 89.7553L78.043 88.9291C79.0475 88.3555 79.7866 87.5079 80.4595 86.1574C82.0577 82.7269 81.1014 79.4222 77.7074 78.5038C76.9911 78.3199 76.3538 77.9028 76.2911 77.577C76.2283 77.2511 76.9323 76.1341 77.8555 75.0946C78.7787 74.0552 79.7334 72.5393 79.9771 71.726C80.6 69.6468 79.9109 68.7134 77.1007 67.8301C73.723 66.7683 71.9445 65.2858 70.4394 62.2773C68.7985 58.9975 68.8004 58.1292 70.4516 56.4382C71.4119 55.4547 71.956 54.3846 72.5074 52.3949C73.323 49.4517 73.9174 48.3132 75.5692 46.5301L76.6476 45.3661L75.6954 42.628C74.8811 40.2865 74.8184 39.8148 75.2621 39.371C76.014 38.6191 77.9636 39.0876 81.3281 40.8286C84.4697 42.4543 86.465 42.7118 87.6599 41.6456C88.0614 41.2873 89.1887 39.6831 90.1649 38.0808C91.1411 36.4784 92.1797 35.0753 92.4728 34.9628C94.1687 34.3121 97.8595 41.6423 98.7478 47.4255C98.9187 48.5379 99.6902 49.9965 101.307 52.2644C105.939 58.7595 109.288 66.2435 110.588 73.0053C111.084 75.5824 111.094 75.5986 111.553 74.4942C112.844 71.3887 113.958 62.9667 113.62 58.8608C112.744 48.1948 108.713 40.5745 101.341 35.6438C91.235 28.8842 77.7953 29.9113 69.6401 38.0665C68.337 39.3696 67.0509 40.4358 66.7822 40.4358" fill="#009872"/>
<path d="M58.4874 96.7262C55.6659 94.4407 56.6413 90.7307 61.4015 85.6421C64.1599 82.6933 65.5262 82.1509 67.9064 83.0599C69.2342 83.567 70.0829 84.3311 71.9722 86.7205C75.8114 91.5756 76.3807 94.3815 73.9429 96.4328C72.6165 97.5489 71.107 97.6523 68.2536 96.8228C66.5289 96.3214 66.1151 96.321 64.4741 96.8187C61.9956 97.5706 58.4874 96.7262 58.4874 96.7262ZM53.9375 87.1375C51.0455 84.7041 51.699 79.8914 54.9214 79.8914C57.2992 79.8914 59.6407 83.4742 58.885 85.9563C58.1895 88.2403 55.8982 88.7874 53.9375 87.1375ZM74.5758 87.5924C73.5851 86.868 73.3712 84.0472 74.1779 82.3471C74.8141 81.0065 76.3311 79.8914 77.5186 79.8914C78.6938 79.8914 79.9396 81.6161 79.9396 83.243C79.9396 86.7695 76.8626 89.2645 74.5758 87.5924ZM59.8831 80.7733C57.1543 78.8619 57.5488 72.9427 60.4537 72.2136C62.6604 71.6597 65.0507 74.3109 65.0507 77.3123C65.0507 80.6143 62.2931 82.4613 59.8831 80.7733ZM68.2477 80.2351C67.4928 79.3379 67.2841 78.6876 67.2841 77.2328C67.2841 73.5003 69.6844 71.1419 72.1436 72.458C73.2455 73.0477 73.9841 74.823 73.9841 76.8822C73.9841 78.4393 73.7925 78.967 72.8288 80.0645C71.2859 81.8219 69.6347 81.8834 68.2477 80.2351Z" fill="#EBA741"/>
<path d="M67.811 130.38C67.6809 130.041 67.6483 126.122 67.7385 121.67C67.9258 112.434 68.2363 111.119 71.1728 107.13C73.9138 103.407 76.9637 101.795 85.4452 99.588C87.5203 99.048 89.5324 98.1732 91.5869 96.9178C97.491 93.31 98.6595 92.994 100.243 94.5772C102.643 96.978 100.605 99.9484 93.6188 104.231C92.0322 105.204 90.7341 106.134 90.7341 106.298C90.7341 106.461 91.5297 106.448 92.5022 106.267C98.8537 105.09 103.088 101.922 107.111 95.3386C110.588 89.6495 112.875 87.3358 115.022 87.3358C116.813 87.3358 117.253 88.9077 116.254 91.7377C115.399 94.1608 112.018 100.707 110.26 103.341C108.164 106.484 102.684 111.877 99.8892 113.549C98.6609 114.284 94.6383 115.872 90.7697 117.15C82.4707 119.89 81.6673 120.276 79.6154 122.502C77.873 124.392 77.1813 125.778 76.7883 128.166C76.647 129.024 76.3212 129.901 76.0643 130.114C75.8073 130.327 73.8985 130.613 71.8224 130.749C68.5092 130.966 68.0187 130.921 67.811 130.38Z" fill="#009872"/>
<path d="M60.6462 130.548C58.1303 130.31 57.2342 129.659 57.2342 128.07C57.2342 126.875 56.2474 124.284 55.3558 123.138C53.6938 121.002 50.6205 119.396 44.4446 117.435C35.9773 114.748 32.5322 112.902 28.5717 108.933C26.8308 107.188 24.752 104.771 23.9521 103.56C20.8908 98.9284 17.0342 90.8194 17.0342 89.0147C17.0342 87.9196 17.7332 87.3358 19.0445 87.3358C20.5617 87.3358 23.6994 90.6219 26.1079 94.7331C28.9149 99.5246 31.7466 102.314 35.8024 104.283C39.2029 105.934 42.8657 107.039 43.3449 106.56C43.6408 106.264 42.9071 105.71 38.9988 103.275C33.2551 99.6967 31.4153 96.7431 33.5812 94.5772C34.8511 93.3072 36.223 93.4214 38.8311 95.0141C53.613 104.041 59.0909 99.7025 63.9133 109.256C65.7717 112.937 66.1559 115.338 66.162 123.308C66.1668 129.466 66.0875 130.465 65.5787 130.66C64.9395 130.905 64.2355 130.889 60.6462 130.548Z" fill="#4DA4CF"/>
<path d="M67.6466 1.67354C74.2297 1.46491 76.6176 1.98011 80.8416 2.97688C88.2795 4.73209 94.7002 7.28859 100.602 10.8449C116.652 20.5159 127.712 36.1149 131.377 54.248C132.101 57.8312 132.234 59.6427 132.235 65.9331C132.237 74.7752 131.649 78.7647 129.27 86.0331C124.631 100.213 116.189 111.346 103.573 119.924C97.2057 124.254 86.0094 128.998 81.8014 129.15C80.182 129.209 80.1227 129.172 80.0131 128.045C79.8273 126.135 81.064 125.196 85.7097 123.721C96.4219 120.318 105.495 114.403 112.97 105.947C118.378 99.8294 122.265 93.1598 124.912 85.4544C126.743 80.1238 127.481 76.5398 127.954 70.6835C128.831 59.8097 126.511 48.4488 121.398 38.5747C115.808 27.7827 105.316 17.6773 93.9545 12.1453C86.2454 8.39151 76.147 5.43431 67.5765 5.57587C65.2237 5.61473 65.7402 1.73396 67.6466 1.67354Z" fill="#009872"/>
<defs>
<linearGradient id="paint0_linear_580_18132" x1="65.5418" y1="50.7336" x2="4.95041" y2="80.286" gradientUnits="userSpaceOnUse">
<stop offset="0.00380952" stop-color="#009872"/>
<stop offset="0.544119" stop-color="#4DA4CF"/>
</linearGradient>
</defs>
</svg>
